<?xml version="1.0" encoding="utf-8"?>
<!-- Generator: Adobe Illustrator 16.0.0, SVG Export Plug-In . SVG Version: 6.00 Build 0)  -->
<!DOCTYPE svg PUBLIC "-//W3C//DTD SVG 1.1//EN" "http://www.w3.org/Graphics/SVG/1.1/DTD/svg11.dtd">
<svg version="1.1" id="Layer_1" xmlns="http://www.w3.org/2000/svg" xmlns:xlink="http://www.w3.org/1999/xlink" x="0px" y="0px"
	 width="2075.167px" height="214px" viewBox="0 0 2075.167 214" enable-background="new 0 0 2075.167 214" xml:space="preserve">
<g id="วิศว_xE2F__จุฬา_xE2F__Standard">
	<g>
		<g>
			<g>
				<path fill="#FFFFFF" d="M295.046,160.611l0.021,11.92l5.532-0.006c0.64-0.006,1.185-0.061,1.645-0.18
					c0.455-0.125,0.83-0.338,1.148-0.652c0.311-0.318,0.557-0.744,0.736-1.277c0.177-0.535,0.313-1.225,0.42-2.059l0.829-0.004
					l0.02,10.266l-0.831,0.006c-0.018-0.764-0.089-1.414-0.223-1.943c-0.132-0.535-0.355-0.98-0.652-1.326
					c-0.299-0.336-0.692-0.59-1.199-0.74c-0.497-0.158-1.124-0.232-1.89-0.232l-5.535,0.014l0.025,9.525
					c0,0.717,0.015,1.295,0.048,1.746c0.031,0.443,0.083,0.814,0.167,1.1c0.085,0.275,0.215,0.508,0.367,0.68
					c0.169,0.174,0.392,0.334,0.654,0.484c0.643,0.354,1.327,0.529,2.065,0.525l1.094-0.006v0.832l-13.024,0.031v-0.83l1.075-0.01
					c1.271,0,2.177-0.367,2.725-1.098c0.359-0.457,0.539-1.607,0.539-3.445l-0.041-19.604c0-0.707-0.013-1.295-0.048-1.742
					c-0.028-0.443-0.094-0.811-0.169-1.107c-0.085-0.293-0.207-0.518-0.366-0.678c-0.153-0.164-0.367-0.324-0.638-0.469
					c-0.66-0.363-1.337-0.533-2.053-0.533h-1.076l-0.007-0.824l22.583-0.045l0.013,6.664h-0.489
					c-0.305-1.088-0.642-1.961-1.001-2.613c-0.363-0.658-0.814-1.166-1.348-1.523c-0.529-0.357-1.154-0.586-1.874-0.701
					c-0.714-0.109-1.557-0.164-2.55-0.156L295.046,160.611z"/>
				<path fill="#FFFFFF" d="M331.794,168.121c1.455,0,2.77,0.281,3.979,0.846c1.215,0.566,2.253,1.318,3.133,2.279
					c0.872,0.953,1.552,2.055,2.043,3.328c0.482,1.266,0.732,2.596,0.732,4.004c0.004,1.477-0.246,2.889-0.737,4.236
					c-0.502,1.35-1.194,2.547-2.085,3.602c-0.904,1.043-1.962,1.871-3.196,2.496c-1.239,0.627-2.59,0.939-4.074,0.939
					c-1.448,0.006-2.763-0.299-3.95-0.887c-1.193-0.594-2.205-1.391-3.058-2.379c-0.85-0.996-1.514-2.125-1.985-3.406
					c-0.457-1.285-0.692-2.609-0.696-3.984c0-1.383,0.234-2.744,0.707-4.07c0.481-1.334,1.152-2.516,2.019-3.549
					c0.874-1.043,1.916-1.871,3.126-2.506C328.97,168.445,330.314,168.125,331.794,168.121z M331.111,169.578
					c-0.667,0-1.297,0.139-1.903,0.416c-0.603,0.283-1.135,0.727-1.592,1.354c-0.477,0.619-0.853,1.408-1.142,2.393
					c-0.277,0.977-0.417,2.164-0.413,3.57c0,1.443,0.164,2.826,0.465,4.156c0.309,1.33,0.746,2.5,1.301,3.498
					c0.567,1.012,1.25,1.807,2.045,2.408c0.798,0.594,1.696,0.885,2.671,0.885c0.728,0,1.381-0.137,1.985-0.412
					c0.597-0.283,1.129-0.727,1.574-1.348c0.445-0.621,0.794-1.438,1.047-2.451c0.256-1.02,0.375-2.262,0.371-3.738
					c0-1.477-0.144-2.863-0.433-4.16c-0.288-1.295-0.705-2.436-1.242-3.412c-0.554-0.977-1.227-1.746-2.029-2.312
					C333.022,169.859,332.116,169.574,331.111,169.578z"/>
				<path fill="#FFFFFF" d="M371.814,168.652l0.025,12.412c0,2.4,0.062,3.855,0.166,4.363c0.12,0.525,0.295,0.891,0.54,1.098
					c0.252,0.207,0.545,0.307,0.875,0.307c0.448,0,0.969-0.123,1.556-0.373l0.322,0.779l-6.138,2.537h-0.994l-0.012-4.342
					c-1.766,1.916-3.115,3.115-4.022,3.613c-0.919,0.492-1.893,0.742-2.927,0.742c-1.152,0-2.144-0.318-2.982-0.963
					c-0.835-0.648-1.427-1.506-1.77-2.588c-0.329-1.025-0.493-2.498-0.5-4.426l-0.02-9.146c0-0.674-0.056-1.219-0.17-1.637
					c-0.111-0.41-0.295-0.736-0.543-0.959c-0.259-0.223-0.59-0.373-1-0.451c-0.413-0.072-0.909-0.105-1.486-0.105h-0.268
					l-0.012-0.824l7.181-0.018l0.031,13.717c0,0.986,0.096,1.783,0.28,2.391c0.193,0.613,0.443,1.086,0.76,1.422
					c0.319,0.334,0.68,0.551,1.083,0.668c0.413,0.113,0.841,0.172,1.291,0.164c0.307,0,0.648-0.039,1.017-0.133
					c0.361-0.084,0.75-0.25,1.159-0.473c0.416-0.227,0.854-0.527,1.328-0.895c0.484-0.379,1-0.852,1.566-1.412l-0.014-11.615
					c-0.011-0.58-0.05-1.064-0.142-1.443c-0.097-0.387-0.265-0.688-0.51-0.918c-0.24-0.227-0.584-0.396-1.002-0.49
					c-0.431-0.098-0.981-0.148-1.642-0.166v-0.824L371.814,168.652z"/>
				<path fill="#FFFFFF" d="M391.911,172.346c2.395-2.902,4.679-4.352,6.855-4.363c0.762,0,1.458,0.133,2.109,0.389
					c0.636,0.248,1.193,0.678,1.682,1.273c0.47,0.59,0.846,1.383,1.117,2.367c0.273,0.986,0.411,2.209,0.411,3.689l0.018,8.754
					c0.01,0.877,0.043,1.568,0.146,2.074c0.098,0.512,0.272,0.893,0.505,1.158c0.243,0.254,0.561,0.418,0.969,0.49
					c0.403,0.061,0.904,0.094,1.518,0.094v0.801l-10.137,0.023v-0.809h0.427c0.664,0,1.201-0.061,1.576-0.182
					c0.387-0.117,0.672-0.322,0.86-0.611c0.2-0.291,0.313-0.686,0.371-1.182c0.052-0.494,0.072-1.115,0.072-1.854l-0.018-8.393
					c-0.002-1.863-0.245-3.221-0.736-4.059c-0.481-0.84-1.303-1.264-2.452-1.264c-1.776,0.008-3.54,0.975-5.293,2.918l0.016,10.814
					c0.004,1.352,0.092,2.209,0.251,2.564c0.107,0.234,0.225,0.424,0.347,0.592c0.129,0.162,0.306,0.293,0.525,0.383
					c0.219,0.096,0.497,0.168,0.844,0.215c0.349,0.041,0.814,0.062,1.378,0.062v0.805l-10.135,0.023v-0.811h0.447
					c0.535,0,0.976-0.057,1.325-0.18c0.337-0.123,0.609-0.332,0.814-0.625c0.195-0.301,0.331-0.689,0.411-1.18
					c0.07-0.482,0.105-1.104,0.102-1.84l-0.011-7.619c-0.005-2.426-0.066-3.926-0.184-4.496c-0.109-0.537-0.273-0.893-0.507-1.094
					c-0.227-0.195-0.541-0.287-0.928-0.287c-0.423,0-0.928,0.113-1.504,0.344l-0.337-0.805l6.177-2.525h0.959L391.911,172.346z"/>
				<path fill="#FFFFFF" d="M432.521,186.719c-1.001,1.053-1.975,1.801-2.929,2.26c-0.938,0.451-1.976,0.682-3.099,0.688
					c-1.104,0-2.174-0.246-3.18-0.74c-1.012-0.506-1.897-1.191-2.669-2.078c-0.774-0.889-1.382-1.945-1.839-3.172
					c-0.461-1.221-0.685-2.553-0.688-4.018c-0.004-2.941,0.904-5.629,2.761-8.061c1.853-2.453,4.231-3.68,7.125-3.684
					c1.792-0.006,3.277,0.562,4.479,1.709l-0.012-6.713c0-0.266,0.009-0.564,0.029-0.885c0.023-0.311,0-0.619-0.08-0.906
					c-0.072-0.281-0.224-0.51-0.445-0.697c-0.228-0.189-0.597-0.279-1.104-0.279c-0.399,0-0.912,0.123-1.54,0.357l-0.29-0.775
					l6.103-2.521h1.01l0.044,23.695c0,2.428,0.06,3.896,0.163,4.398c0.12,0.527,0.306,0.895,0.556,1.105
					c0.243,0.207,0.528,0.307,0.851,0.307c0.394,0,0.93-0.131,1.616-0.379l0.25,0.777l-6.08,2.539h-1.032V186.719z M432.513,185.148
					l-0.025-10.555c-0.079-0.85-0.267-1.604-0.568-2.254c-0.313-0.662-0.681-1.217-1.133-1.668
					c-0.439-0.457-0.925-0.791-1.453-1.027c-0.53-0.23-1.065-0.35-1.59-0.342c-0.798,0-1.523,0.205-2.199,0.615
					c-0.675,0.41-1.259,0.994-1.76,1.752c-0.496,0.752-0.886,1.656-1.171,2.711c-0.275,1.049-0.413,2.223-0.413,3.506
					c0.004,1.504,0.193,2.834,0.561,3.994c0.367,1.162,0.843,2.143,1.442,2.934c0.602,0.789,1.282,1.383,2.044,1.787
					c0.753,0.395,1.535,0.602,2.325,0.602C429.933,187.203,431.248,186.52,432.513,185.148z"/>
				<path fill="#FFFFFF" d="M461.722,186.01c-2.091,1.652-3.418,2.592-3.951,2.826c-0.789,0.381-1.646,0.572-2.572,0.572
					c-0.704,0-1.351-0.125-1.951-0.383c-0.599-0.254-1.107-0.605-1.544-1.064c-0.437-0.463-0.772-1.023-1.021-1.662
					c-0.253-0.65-0.37-1.373-0.375-2.156c0-0.584,0.07-1.127,0.235-1.617c0.156-0.49,0.389-0.961,0.696-1.398
					c0.313-0.445,0.714-0.865,1.199-1.27c0.481-0.404,1.054-0.799,1.699-1.191c1.551-0.912,4.062-2.004,7.565-3.277v-0.809
					c0-1.023-0.089-1.889-0.259-2.572c-0.174-0.684-0.421-1.229-0.743-1.641c-0.319-0.41-0.726-0.699-1.2-0.877
					c-0.483-0.16-1.014-0.246-1.617-0.244c-0.471,0-0.9,0.064-1.281,0.209c-0.378,0.145-0.706,0.334-0.973,0.562
					c-0.27,0.227-0.474,0.5-0.614,0.807c-0.141,0.309-0.213,0.617-0.213,0.934l0.052,1.297c0.003,0.686-0.172,1.213-0.527,1.594
					c-0.347,0.369-0.81,0.559-1.377,0.559c-0.548,0-0.997-0.197-1.346-0.582c-0.354-0.389-0.529-0.92-0.539-1.59
					c0-0.627,0.166-1.248,0.509-1.855c0.327-0.617,0.814-1.168,1.442-1.664c0.634-0.486,1.417-0.885,2.354-1.189
					c0.933-0.297,1.991-0.451,3.186-0.451c1.582-0.002,2.929,0.229,4.028,0.688c1.099,0.463,1.905,1.254,2.398,2.393
					c0.27,0.65,0.401,1.965,0.409,3.934l0.012,6.961c0,0.986,0.018,1.773,0.036,2.371c0.028,0.594,0.062,0.998,0.09,1.225
					c0.068,0.438,0.196,0.73,0.37,0.873c0.175,0.158,0.363,0.225,0.588,0.225c0.156,0,0.293-0.023,0.431-0.062
					c0.134-0.053,0.286-0.139,0.469-0.273c0.176-0.137,0.387-0.314,0.618-0.551c0.25-0.23,0.551-0.537,0.918-0.906V186
					c-1.676,2.248-3.276,3.359-4.77,3.367c-0.725,0.006-1.305-0.252-1.758-0.758C461.952,188.105,461.722,187.244,461.722,186.01z
					 M461.722,184.561l-0.016-7.812c-1.138,0.451-2.071,0.836-2.78,1.154c-0.728,0.312-1.255,0.566-1.579,0.756
					c-1.178,0.684-2.02,1.369-2.532,2.078c-0.503,0.709-0.754,1.49-0.754,2.342c0.003,0.531,0.092,1.035,0.267,1.482
					c0.17,0.457,0.407,0.854,0.69,1.191c0.293,0.33,0.642,0.594,1.017,0.777c0.391,0.189,0.794,0.279,1.216,0.279
					C458.387,186.809,459.869,186.057,461.722,184.561z"/>
				<path fill="#FFFFFF" d="M485.522,161.693l0.019,6.734l4.778-0.006l0.004,1.561l-4.782,0.004l0.02,13.297
					c0.004,0.672,0.054,1.227,0.164,1.666c0.104,0.443,0.251,0.795,0.423,1.041c0.189,0.248,0.399,0.426,0.643,0.529
					c0.241,0.09,0.512,0.139,0.817,0.139c0.49-0.004,0.971-0.152,1.427-0.461c0.464-0.305,0.82-0.764,1.074-1.355h0.874
					c-0.269,0.73-0.588,1.373-0.97,1.926s-0.794,1.008-1.237,1.375c-0.45,0.365-0.921,0.645-1.432,0.834
					c-0.503,0.188-1.014,0.279-1.528,0.283c-0.335,0-0.683-0.045-1.036-0.145c-0.349-0.096-0.676-0.24-0.982-0.428
					c-0.309-0.188-0.582-0.408-0.837-0.674c-0.257-0.266-0.458-0.58-0.612-0.945c-0.313-0.713-0.468-1.807-0.474-3.279
					l-0.024-13.791l-3.246,0.008v-0.736c0.814-0.33,1.654-0.887,2.512-1.674c0.858-0.783,1.614-1.717,2.279-2.795
					c0.17-0.277,0.375-0.684,0.618-1.191c0.245-0.518,0.517-1.156,0.818-1.916H485.522z"/>
				<path fill="#FFFFFF" d="M508.542,167.783l0.034,16.465c0.01,0.654,0.032,1.186,0.076,1.596c0.045,0.414,0.113,0.742,0.208,1
					c0.081,0.25,0.199,0.436,0.342,0.564c0.134,0.127,0.306,0.248,0.481,0.352c0.389,0.207,1.062,0.305,2.015,0.305v0.811
					l-9.95,0.014v-0.801c0.504-0.004,0.914-0.023,1.229-0.072c0.325-0.049,0.586-0.119,0.786-0.229
					c0.2-0.096,0.357-0.232,0.469-0.385c0.11-0.158,0.221-0.354,0.325-0.576c0.208-0.465,0.312-1.326,0.31-2.568l-0.017-7.904
					c0-1.301-0.028-2.32-0.074-3.072c-0.048-0.738-0.124-1.295-0.24-1.67c-0.114-0.373-0.273-0.605-0.493-0.705
					c-0.211-0.096-0.489-0.146-0.813-0.146c-0.425,0.004-0.922,0.117-1.527,0.344l-0.307-0.807l6.168-2.514H508.542z
					 M506.665,157.068c0.314,0,0.61,0.053,0.888,0.174c0.276,0.119,0.517,0.279,0.724,0.479c0.196,0.197,0.357,0.438,0.473,0.717
					c0.12,0.271,0.179,0.57,0.179,0.877c0,0.32-0.051,0.611-0.175,0.887c-0.118,0.277-0.273,0.523-0.473,0.729
					c-0.204,0.209-0.445,0.381-0.717,0.492c-0.281,0.129-0.574,0.186-0.892,0.186c-0.307,0-0.598-0.057-0.883-0.176
					c-0.27-0.121-0.513-0.287-0.718-0.492c-0.216-0.209-0.377-0.455-0.5-0.729c-0.116-0.271-0.176-0.568-0.176-0.887
					c-0.003-0.303,0.06-0.604,0.172-0.883c0.128-0.277,0.285-0.51,0.481-0.713c0.199-0.197,0.444-0.361,0.73-0.48
					C506.057,157.121,506.358,157.068,506.665,157.068z"/>
				<path fill="#FFFFFF" d="M533.4,167.738c1.441-0.01,2.773,0.266,3.975,0.83c1.219,0.576,2.259,1.33,3.128,2.281
					c0.879,0.953,1.557,2.061,2.049,3.332c0.485,1.262,0.727,2.604,0.73,3.998c0.004,1.479-0.245,2.885-0.738,4.248
					c-0.5,1.348-1.189,2.549-2.091,3.586c-0.89,1.045-1.955,1.883-3.196,2.506c-1.228,0.627-2.583,0.93-4.062,0.938
					c-1.446,0-2.766-0.293-3.951-0.887c-1.195-0.594-2.205-1.387-3.066-2.379c-0.849-0.994-1.508-2.127-1.972-3.408
					c-0.46-1.279-0.702-2.609-0.702-3.984c-0.004-1.385,0.233-2.74,0.707-4.068c0.477-1.332,1.151-2.516,2.028-3.555
					c0.861-1.031,1.906-1.867,3.129-2.496C530.577,168.049,531.916,167.738,533.4,167.738z M532.706,169.188
					c-0.654,0-1.287,0.143-1.896,0.416c-0.597,0.281-1.129,0.725-1.606,1.344c-0.464,0.623-0.84,1.414-1.126,2.404
					c-0.275,0.977-0.417,2.16-0.417,3.557c0,1.455,0.162,2.84,0.468,4.164c0.313,1.332,0.747,2.498,1.315,3.502
					c0.552,1.004,1.239,1.803,2.034,2.402c0.8,0.594,1.689,0.898,2.675,0.898c0.714-0.008,1.378-0.145,1.975-0.424
					c0.602-0.277,1.129-0.729,1.581-1.35c0.444-0.621,0.792-1.43,1.041-2.455c0.252-1.01,0.378-2.256,0.378-3.734
					c-0.004-1.477-0.15-2.861-0.434-4.158c-0.294-1.297-0.706-2.441-1.245-3.408c-0.554-0.973-1.222-1.754-2.025-2.316
					C534.625,169.461,533.719,169.188,532.706,169.188z"/>
				<path fill="#FFFFFF" d="M561.433,172.012c2.396-2.893,4.688-4.348,6.858-4.35c0.763-0.006,1.463,0.123,2.107,0.377
					c0.638,0.256,1.199,0.68,1.68,1.27c0.476,0.6,0.846,1.383,1.124,2.369c0.263,0.988,0.406,2.215,0.406,3.689l0.02,8.758
					c0,0.873,0.055,1.572,0.152,2.076c0.099,0.508,0.262,0.893,0.499,1.152c0.245,0.256,0.564,0.422,0.966,0.492
					c0.405,0.062,0.909,0.096,1.522,0.096v0.803l-10.137,0.016v-0.799h0.431c0.661,0,1.193-0.064,1.568-0.186
					c0.383-0.119,0.667-0.324,0.859-0.613c0.2-0.293,0.318-0.682,0.368-1.176c0.056-0.49,0.082-1.115,0.082-1.859l-0.018-8.389
					c-0.008-1.873-0.251-3.219-0.746-4.062c-0.477-0.844-1.297-1.26-2.446-1.258c-1.776,0-3.542,0.975-5.295,2.918l0.018,10.811
					c0.002,1.352,0.087,2.209,0.253,2.572c0.106,0.219,0.219,0.42,0.346,0.578c0.13,0.168,0.302,0.297,0.517,0.395
					c0.221,0.092,0.494,0.164,0.849,0.205c0.354,0.045,0.81,0.07,1.385,0.07v0.793l-10.14,0.027v-0.807h0.448
					c0.534,0,0.979-0.055,1.319-0.184c0.345-0.113,0.612-0.328,0.815-0.623c0.197-0.299,0.333-0.691,0.408-1.178
					c0.076-0.479,0.111-1.098,0.106-1.85l-0.002-7.607c-0.013-2.428-0.072-3.922-0.198-4.494c-0.099-0.533-0.278-0.898-0.505-1.098
					c-0.229-0.195-0.539-0.293-0.929-0.293c-0.415,0-0.915,0.125-1.491,0.342l-0.339-0.801l6.171-2.518l0.956-0.008L561.433,172.012
					z"/>
				<path fill="#FFFFFF" d="M614.088,161.441l0.02,6.734l4.777-0.006l0.004,1.561l-4.781,0.008l0.021,13.297
					c0.004,0.668,0.056,1.225,0.16,1.666c0.107,0.436,0.245,0.785,0.428,1.043c0.181,0.252,0.389,0.428,0.641,0.52
					c0.245,0.098,0.518,0.145,0.818,0.145c0.488,0,0.969-0.154,1.422-0.463c0.465-0.307,0.817-0.76,1.079-1.354l0.864-0.006
					c-0.263,0.734-0.583,1.379-0.957,1.934c-0.38,0.549-0.799,1.008-1.247,1.373c-0.444,0.365-0.922,0.641-1.434,0.832
					c-0.497,0.188-1.01,0.275-1.52,0.275c-0.337,0-0.689-0.035-1.039-0.139c-0.342-0.102-0.675-0.236-0.989-0.426
					c-0.299-0.182-0.585-0.41-0.833-0.676c-0.253-0.266-0.457-0.58-0.602-0.938c-0.316-0.717-0.477-1.807-0.477-3.283l-0.032-13.791
					l-3.244,0.006v-0.729c0.816-0.336,1.652-0.895,2.509-1.682c0.857-0.781,1.62-1.719,2.28-2.789
					c0.176-0.281,0.377-0.686,0.625-1.195c0.243-0.518,0.512-1.154,0.806-1.918H614.088z"/>
				<path fill="#FFFFFF" d="M640.068,167.52c1.449,0,2.777,0.285,3.98,0.842c1.22,0.564,2.26,1.33,3.132,2.285
					c0.875,0.945,1.548,2.057,2.041,3.318c0.486,1.275,0.728,2.605,0.728,4.014c0.012,1.475-0.236,2.889-0.73,4.232
					c-0.503,1.354-1.193,2.555-2.087,3.598c-0.893,1.047-1.957,1.883-3.202,2.502c-1.236,0.627-2.591,0.934-4.065,0.934
					c-1.443,0.006-2.766-0.291-3.954-0.887c-1.186-0.586-2.207-1.385-3.059-2.367c-0.847-0.992-1.502-2.127-1.975-3.418
					c-0.464-1.275-0.704-2.607-0.704-3.982c-0.007-1.383,0.236-2.736,0.704-4.068c0.482-1.33,1.156-2.51,2.023-3.553
					c0.87-1.037,1.915-1.873,3.133-2.498C637.249,167.842,638.589,167.523,640.068,167.52z M639.384,168.977
					c-0.656,0.004-1.295,0.143-1.896,0.416c-0.611,0.281-1.144,0.73-1.608,1.348c-0.472,0.623-0.84,1.418-1.125,2.396
					c-0.277,0.975-0.429,2.17-0.42,3.572c0,1.445,0.164,2.836,0.466,4.164c0.309,1.32,0.746,2.488,1.297,3.494
					c0.565,1,1.253,1.809,2.054,2.4c0.79,0.6,1.688,0.895,2.67,0.895c0.715,0,1.377-0.148,1.975-0.418
					c0.606-0.281,1.133-0.725,1.587-1.352c0.442-0.623,0.792-1.434,1.039-2.445c0.252-1.018,0.37-2.26,0.37-3.738
					s-0.142-2.869-0.43-4.164c-0.289-1.293-0.705-2.436-1.247-3.414c-0.549-0.973-1.223-1.742-2.02-2.312
					C641.294,169.258,640.392,168.977,639.384,168.977z"/>
				<path fill="#FFFFFF" d="M660.979,168.084l8.597-0.016v0.828c-0.795,0.066-1.311,0.199-1.556,0.428
					c-0.246,0.223-0.369,0.543-0.369,0.961c0,0.445,0.128,1.006,0.385,1.682l4.411,11.777l4.384-9.609l-1.166-3.012
					c-0.147-0.375-0.302-0.695-0.461-0.973c-0.166-0.27-0.362-0.506-0.595-0.678c-0.245-0.184-0.535-0.316-0.88-0.404
					c-0.36-0.092-0.789-0.145-1.315-0.182l-0.004-0.824l9.762-0.02v0.828c-0.913,0.049-1.588,0.189-2.046,0.432
					c-0.461,0.24-0.68,0.672-0.68,1.301c0,0.326,0.056,0.635,0.176,0.91l4.685,11.762l4.289-11.35
					c0.297-0.812,0.448-1.447,0.443-1.928c0-0.287-0.146-0.537-0.434-0.754c-0.296-0.219-0.866-0.357-1.711-0.385v-0.828l6.46-0.01
					v0.828c-1.309,0.211-2.259,1.096-2.853,2.645l-6.817,17.67l-0.913,0.006l-5.15-13.088l-5.954,13.104h-0.823l-6.615-17.211
					c-0.204-0.555-0.409-1.006-0.609-1.35c-0.205-0.361-0.433-0.639-0.667-0.857c-0.244-0.215-0.517-0.381-0.826-0.51
					c-0.326-0.121-0.702-0.232-1.143-0.344L660.979,168.084z"/>
				<path fill="#FFFFFF" d="M716.027,185.52c-2.095,1.654-3.416,2.586-3.958,2.822c-0.787,0.383-1.643,0.564-2.569,0.57
					c-0.705,0-1.353-0.125-1.954-0.381c-0.598-0.246-1.112-0.6-1.538-1.066c-0.44-0.463-0.776-1.018-1.022-1.664
					c-0.249-0.652-0.375-1.367-0.375-2.164c0-0.57,0.073-1.115,0.234-1.607c0.153-0.494,0.388-0.965,0.699-1.398
					c0.313-0.445,0.713-0.871,1.197-1.268c0.482-0.404,1.048-0.803,1.703-1.191c1.539-0.91,4.058-2.008,7.559-3.283v-0.807
					c0-1.025-0.091-1.883-0.265-2.568c-0.167-0.684-0.41-1.232-0.735-1.641c-0.323-0.412-0.726-0.701-1.202-0.873
					c-0.471-0.17-1.006-0.252-1.604-0.252c-0.489,0-0.914,0.068-1.295,0.215c-0.375,0.137-0.7,0.326-0.97,0.564
					c-0.266,0.227-0.473,0.492-0.616,0.801c-0.136,0.305-0.204,0.613-0.204,0.93l0.039,1.293c0.01,0.689-0.168,1.223-0.522,1.588
					c-0.343,0.383-0.806,0.566-1.369,0.566c-0.56,0.002-1.012-0.193-1.35-0.576c-0.357-0.385-0.541-0.916-0.541-1.59
					c0-0.625,0.167-1.242,0.505-1.861c0.332-0.607,0.816-1.162,1.446-1.652c0.632-0.49,1.419-0.891,2.353-1.193
					c0.931-0.303,1.996-0.451,3.186-0.455c1.574-0.006,2.927,0.227,4.026,0.691c1.104,0.457,1.905,1.256,2.399,2.391
					c0.277,0.648,0.405,1.969,0.405,3.938l0.019,6.953c0.005,0.982,0.02,1.779,0.048,2.371c0.021,0.598,0.045,1.01,0.07,1.236
					c0.077,0.422,0.198,0.717,0.379,0.867c0.171,0.152,0.36,0.227,0.583,0.227c0.153,0,0.301-0.023,0.428-0.064
					c0.138-0.049,0.293-0.143,0.473-0.275c0.18-0.137,0.385-0.318,0.62-0.551c0.244-0.234,0.557-0.531,0.922-0.902v1.242
					c-1.681,2.25-3.275,3.361-4.783,3.375c-0.716,0-1.293-0.258-1.746-0.764C716.253,187.607,716.032,186.74,716.027,185.52z
					 M716.021,184.064l-0.012-7.814c-1.136,0.459-2.062,0.838-2.789,1.156c-0.719,0.316-1.241,0.564-1.57,0.76
					c-1.175,0.672-2.018,1.371-2.521,2.074c-0.51,0.711-0.762,1.5-0.762,2.346c0.004,0.531,0.09,1.031,0.258,1.486
					c0.178,0.453,0.408,0.848,0.701,1.18c0.289,0.338,0.633,0.592,1.012,0.783c0.388,0.184,0.792,0.277,1.215,0.273
					C712.689,186.309,714.178,185.562,716.021,184.064z"/>
				<path fill="#FFFFFF" d="M739.876,167.32l0.007,4.617c1.728-3.078,3.487-4.617,5.28-4.617c0.4-0.008,0.773,0.061,1.108,0.199
					c0.349,0.127,0.651,0.312,0.91,0.543c0.264,0.232,0.475,0.488,0.606,0.791c0.142,0.303,0.218,0.619,0.218,0.941
					c0.004,0.58-0.187,1.07-0.581,1.479c-0.384,0.402-0.852,0.607-1.381,0.607c-0.257,0-0.539-0.084-0.858-0.246
					c-0.312-0.164-0.623-0.338-0.928-0.527c-0.3-0.189-0.58-0.355-0.837-0.52c-0.255-0.164-0.446-0.254-0.583-0.254
					c-0.19,0-0.413,0.094-0.648,0.27c-0.24,0.172-0.485,0.41-0.738,0.719c-0.25,0.301-0.512,0.67-0.784,1.096
					c-0.26,0.426-0.518,0.889-0.78,1.396l0.019,9.822c0,0.611,0.047,1.164,0.114,1.652c0.081,0.49,0.241,0.912,0.49,1.254
					c0.246,0.352,0.609,0.611,1.086,0.799c0.473,0.182,1.115,0.271,1.91,0.271v0.805l-10.5,0.018v-0.799
					c0.656,0,1.196-0.051,1.613-0.139c0.413-0.096,0.741-0.271,0.974-0.539c0.239-0.273,0.409-0.654,0.497-1.156
					c0.09-0.506,0.129-1.156,0.129-1.982l-0.009-7.936c-0.009-2.422-0.071-3.834-0.166-4.26c-0.203-0.873-0.703-1.316-1.508-1.316
					c-0.459,0-0.99,0.119-1.558,0.346l-0.239-0.807l6.198-2.52L739.876,167.32z"/>
				<path fill="#FFFFFF" d="M772.816,186.057c-0.99,1.051-1.97,1.799-2.91,2.254c-0.949,0.449-1.983,0.688-3.096,0.688
					c-1.117,0.002-2.183-0.244-3.195-0.74c-1.013-0.498-1.896-1.189-2.662-2.078c-0.771-0.885-1.379-1.938-1.845-3.16
					c-0.458-1.225-0.686-2.561-0.686-4.029c-0.004-2.932,0.909-5.621,2.75-8.057c1.862-2.451,4.245-3.678,7.136-3.688
					c1.788-0.006,3.281,0.576,4.481,1.717l-0.017-6.711c0-0.268,0.017-0.568,0.029-0.887c0.021-0.32-0.009-0.619-0.08-0.908
					c-0.08-0.277-0.227-0.514-0.45-0.695c-0.222-0.188-0.586-0.285-1.095-0.285c-0.404,0.006-0.919,0.125-1.542,0.365l-0.292-0.787
					l6.106-2.512h1.003l0.052,23.693c0,2.432,0.056,3.898,0.164,4.402c0.122,0.521,0.3,0.887,0.547,1.105
					c0.251,0.201,0.531,0.307,0.863,0.297c0.389,0,0.919-0.123,1.608-0.373l0.246,0.779l-6.078,2.543h-1.032L772.816,186.057z
					 M772.812,184.494l-0.019-10.564c-0.071-0.848-0.268-1.602-0.575-2.26c-0.306-0.648-0.676-1.205-1.119-1.664
					c-0.44-0.453-0.93-0.793-1.457-1.025c-0.534-0.23-1.064-0.344-1.599-0.344c-0.794,0.01-1.519,0.207-2.192,0.617
					c-0.678,0.418-1.263,0.996-1.759,1.752c-0.492,0.754-0.875,1.66-1.161,2.707c-0.286,1.053-0.423,2.221-0.423,3.498
					c0.006,1.514,0.189,2.846,0.559,4.018c0.36,1.15,0.846,2.129,1.446,2.918c0.6,0.793,1.278,1.391,2.042,1.793
					c0.763,0.402,1.536,0.596,2.321,0.596C770.235,186.535,771.551,185.852,772.812,184.494z"/>
				<path fill="#FFFFFF" d="M823.757,187.436v0.822l-13.001,0.029v-0.828h1.071c1.265,0,2.182-0.367,2.728-1.104
					c0.359-0.463,0.537-1.609,0.532-3.447l-0.043-19.596c0-0.723-0.009-1.307-0.045-1.744c-0.03-0.455-0.094-0.818-0.176-1.115
					c-0.077-0.287-0.198-0.51-0.353-0.676c-0.159-0.17-0.37-0.316-0.641-0.471c-0.657-0.357-1.344-0.539-2.056-0.539h-1.072
					l-0.003-0.822l12.993-0.027l0.003,0.828H822.6c-1.246,0.006-2.154,0.369-2.708,1.107c-0.365,0.459-0.552,1.613-0.552,3.443
					l0.043,19.602c0,0.719,0.016,1.299,0.053,1.748c0.025,0.449,0.081,0.814,0.163,1.098c0.086,0.283,0.212,0.51,0.371,0.678
					c0.166,0.172,0.382,0.33,0.651,0.484c0.646,0.359,1.319,0.537,2.028,0.537L823.757,187.436z"/>
				<path fill="#FFFFFF" d="M841.412,171.471c2.396-2.902,4.684-4.352,6.856-4.355c0.761-0.006,1.465,0.125,2.108,0.377
					c0.641,0.254,1.206,0.678,1.679,1.275c0.475,0.594,0.851,1.383,1.122,2.365c0.275,0.986,0.411,2.219,0.415,3.699l0.011,8.742
					c0,0.881,0.052,1.574,0.147,2.082c0.101,0.51,0.271,0.887,0.512,1.152c0.241,0.25,0.558,0.418,0.963,0.488
					c0.396,0.07,0.908,0.098,1.521,0.098v0.803l-10.139,0.014v-0.803h0.425c0.671,0,1.2-0.055,1.582-0.176
					c0.382-0.125,0.662-0.326,0.851-0.619c0.193-0.295,0.324-0.684,0.373-1.18c0.055-0.492,0.076-1.105,0.076-1.85l-0.015-8.389
					c0-1.869-0.252-3.221-0.742-4.068c-0.479-0.842-1.302-1.26-2.45-1.254c-1.775,0.008-3.538,0.973-5.296,2.916l0.018,10.811
					c0,1.357,0.086,2.209,0.25,2.572c0.114,0.221,0.226,0.414,0.35,0.576c0.135,0.168,0.306,0.293,0.515,0.4
					c0.223,0.096,0.501,0.162,0.854,0.205c0.35,0.041,0.81,0.068,1.375,0.062v0.805l-10.136,0.018v-0.803h0.447
					c0.539,0,0.978-0.061,1.321-0.178c0.346-0.119,0.618-0.326,0.813-0.629c0.205-0.299,0.345-0.691,0.421-1.184
					c0.067-0.48,0.106-1.094,0.106-1.846l-0.013-7.605c-0.003-2.43-0.073-3.924-0.198-4.498c-0.098-0.531-0.273-0.893-0.501-1.092
					c-0.229-0.193-0.544-0.287-0.927-0.287c-0.426,0-0.924,0.111-1.499,0.338l-0.348-0.805l6.173-2.531h0.971L841.412,171.471z"/>
				<path fill="#FFFFFF" d="M873.487,171.406c2.4-2.896,4.686-4.352,6.86-4.352c0.77,0,1.459,0.123,2.105,0.375
					c0.643,0.25,1.205,0.68,1.684,1.27c0.476,0.59,0.852,1.389,1.118,2.371c0.273,0.986,0.411,2.211,0.412,3.689l0.019,8.754
					c0,0.875,0.051,1.562,0.152,2.076c0.088,0.508,0.262,0.893,0.501,1.15c0.237,0.262,0.566,0.434,0.962,0.492
					c0.41,0.064,0.911,0.096,1.521,0.096v0.807l-10.133,0.02v-0.805h0.425c0.677,0,1.2-0.061,1.583-0.176
					c0.381-0.131,0.657-0.334,0.854-0.619c0.197-0.297,0.312-0.689,0.367-1.182c0.05-0.484,0.076-1.105,0.074-1.852l-0.012-8.391
					c-0.004-1.871-0.258-3.219-0.736-4.061c-0.486-0.842-1.306-1.268-2.457-1.266c-1.778,0.008-3.543,0.98-5.299,2.924l0.024,10.811
					c0.004,1.35,0.086,2.213,0.251,2.566c0.099,0.225,0.222,0.42,0.345,0.58c0.128,0.166,0.304,0.297,0.518,0.395
					c0.223,0.094,0.501,0.168,0.853,0.209c0.35,0.039,0.81,0.066,1.378,0.066v0.805l-10.138,0.023v-0.809h0.449
					c0.532-0.002,0.971-0.064,1.321-0.18c0.338-0.127,0.616-0.33,0.809-0.631c0.202-0.301,0.339-0.688,0.405-1.178
					c0.082-0.484,0.117-1.1,0.117-1.842l-0.011-7.611c-0.012-2.436-0.069-3.926-0.19-4.492c-0.107-0.547-0.275-0.908-0.511-1.107
					c-0.224-0.188-0.538-0.287-0.926-0.275c-0.414,0-0.917,0.109-1.499,0.334l-0.342-0.805l6.182-2.521l0.958-0.004L873.487,171.406
					z"/>
				<path fill="#FFFFFF" d="M909.606,166.996c1.448-0.002,2.775,0.277,3.984,0.84c1.213,0.566,2.251,1.33,3.125,2.281
					c0.874,0.953,1.559,2.059,2.04,3.324c0.494,1.275,0.733,2.613,0.733,4.008c0,1.473-0.239,2.889-0.736,4.24
					c-0.497,1.352-1.189,2.553-2.082,3.6c-0.896,1.041-1.958,1.879-3.197,2.498c-1.228,0.619-2.592,0.938-4.069,0.938
					c-1.448,0.004-2.762-0.293-3.956-0.889c-1.185-0.592-2.207-1.389-3.058-2.375c-0.846-0.992-1.511-2.129-1.982-3.412
					c-0.454-1.285-0.689-2.607-0.689-3.975c0-1.389,0.226-2.744,0.696-4.078c0.481-1.33,1.158-2.512,2.029-3.549
					c0.87-1.039,1.913-1.873,3.125-2.506C906.781,167.312,908.128,166.996,909.606,166.996z M908.921,168.451
					c-0.659,0-1.292,0.145-1.891,0.414c-0.617,0.287-1.143,0.729-1.618,1.35c-0.467,0.617-0.846,1.416-1.123,2.395
					c-0.277,0.977-0.422,2.172-0.42,3.574c0.009,1.449,0.163,2.832,0.475,4.154c0.304,1.328,0.74,2.5,1.295,3.498
					c0.562,1.016,1.249,1.812,2.042,2.402c0.808,0.6,1.69,0.904,2.679,0.9c0.714-0.006,1.38-0.145,1.982-0.42
					c0.598-0.281,1.125-0.729,1.574-1.357c0.446-0.615,0.802-1.43,1.049-2.445c0.251-1.016,0.372-2.26,0.372-3.736
					s-0.146-2.861-0.439-4.156c-0.285-1.297-0.703-2.439-1.247-3.412c-0.544-0.979-1.216-1.746-2.012-2.322
					C910.836,168.736,909.935,168.451,908.921,168.451z"/>
				<path fill="#FFFFFF" d="M930.614,167.559l9.638-0.023l0.008,0.836h-0.63c-0.58,0-1.027,0.141-1.335,0.424
					c-0.299,0.285-0.46,0.666-0.456,1.143c0,0.527,0.161,1.141,0.472,1.859l4.792,11.305l4.766-11.748
					c0.343-0.85,0.511-1.486,0.506-1.91c0-0.43-0.182-0.719-0.546-0.867c-0.366-0.141-0.972-0.219-1.807-0.217v-0.83l6.694-0.01
					l0.006,0.832c-0.476,0.037-0.876,0.125-1.178,0.244c-0.307,0.113-0.559,0.285-0.768,0.506c-0.216,0.236-0.398,0.502-0.564,0.824
					c-0.163,0.318-0.336,0.703-0.512,1.133l-7.239,17.604h-0.914l-7.351-17.281c-0.227-0.539-0.433-0.982-0.637-1.334
					c-0.207-0.342-0.434-0.639-0.701-0.855c-0.257-0.225-0.563-0.396-0.911-0.518c-0.362-0.123-0.811-0.215-1.332-0.285V167.559z"/>
				<path fill="#FFFFFF" d="M975.381,185.018c-2.094,1.641-3.415,2.588-3.957,2.822c-0.779,0.365-1.645,0.561-2.565,0.566
					c-0.697,0-1.352-0.121-1.953-0.381c-0.592-0.25-1.109-0.604-1.543-1.066c-0.435-0.461-0.774-1.018-1.017-1.664
					c-0.249-0.648-0.375-1.373-0.375-2.162c0-0.584,0.08-1.117,0.233-1.609c0.155-0.486,0.386-0.959,0.699-1.402
					c0.309-0.441,0.708-0.859,1.193-1.268c0.485-0.398,1.057-0.791,1.716-1.189c1.531-0.91,4.052-2.002,7.546-3.281v-0.805
					c0-1.029-0.088-1.885-0.262-2.572c-0.173-0.688-0.416-1.229-0.737-1.641c-0.319-0.412-0.717-0.695-1.201-0.867
					c-0.479-0.172-1.019-0.258-1.612-0.25c-0.468,0-0.902,0.061-1.282,0.211c-0.379,0.141-0.709,0.326-0.982,0.555
					c-0.263,0.236-0.465,0.502-0.606,0.805c-0.141,0.314-0.21,0.623-0.21,0.934l0.046,1.299c0.003,0.686-0.185,1.215-0.524,1.586
					c-0.35,0.375-0.811,0.566-1.377,0.566c-0.55,0-1-0.197-1.355-0.582c-0.34-0.385-0.521-0.914-0.53-1.588
					c0-0.621,0.169-1.248,0.5-1.857c0.333-0.613,0.822-1.162,1.452-1.656c0.637-0.492,1.422-0.896,2.352-1.191
					c0.929-0.309,1.997-0.447,3.188-0.455c1.578,0,2.923,0.225,4.024,0.686c1.103,0.463,1.906,1.258,2.402,2.391
					c0.266,0.66,0.409,1.973,0.409,3.932l0.012,6.967c0,0.982,0.023,1.775,0.04,2.369c0.026,0.59,0.056,1.004,0.08,1.232
					c0.077,0.428,0.202,0.719,0.374,0.867c0.168,0.15,0.365,0.225,0.592,0.225c0.147,0,0.293-0.021,0.425-0.07
					c0.134-0.043,0.298-0.127,0.471-0.273c0.179-0.123,0.385-0.309,0.624-0.539c0.24-0.234,0.544-0.533,0.916-0.914l0.004,1.254
					c-1.686,2.246-3.272,3.359-4.782,3.367c-0.714,0.006-1.295-0.254-1.754-0.758C975.607,187.102,975.381,186.234,975.381,185.018z
					 M975.379,183.564l-0.01-7.812c-1.136,0.445-2.066,0.836-2.786,1.145c-0.718,0.314-1.25,0.57-1.58,0.762
					c-1.172,0.674-2.018,1.369-2.522,2.078c-0.5,0.705-0.759,1.492-0.759,2.34c0.011,0.541,0.095,1.025,0.259,1.488
					c0.182,0.447,0.409,0.85,0.7,1.182c0.288,0.33,0.635,0.598,1.022,0.787c0.39,0.182,0.791,0.275,1.207,0.27
					C972.042,185.803,973.53,185.059,975.379,183.564z"/>
				<path fill="#FFFFFF" d="M999.179,160.688l0.015,6.734l4.784-0.002v1.57h-4.784l0.028,13.291c0,0.674,0.058,1.227,0.16,1.668
					c0.106,0.439,0.242,0.791,0.425,1.043c0.181,0.25,0.397,0.428,0.643,0.525c0.237,0.086,0.512,0.143,0.818,0.143
					c0.488-0.004,0.969-0.162,1.425-0.467c0.466-0.305,0.824-0.754,1.075-1.357l0.872-0.006c-0.259,0.738-0.589,1.379-0.976,1.932
					c-0.375,0.557-0.783,1.016-1.231,1.387c-0.446,0.361-0.926,0.639-1.435,0.82c-0.503,0.191-1.01,0.289-1.519,0.289
					c-0.344,0-0.688-0.053-1.034-0.146c-0.352-0.096-0.686-0.234-0.995-0.42c-0.304-0.186-0.583-0.414-0.835-0.682
					c-0.263-0.27-0.464-0.582-0.604-0.939c-0.325-0.717-0.478-1.811-0.484-3.287L995.498,169l-3.232,0.012v-0.748
					c0.808-0.326,1.646-0.883,2.502-1.67c0.855-0.781,1.619-1.713,2.288-2.789c0.172-0.279,0.371-0.682,0.617-1.197
					c0.239-0.514,0.516-1.152,0.822-1.916L999.179,160.688z"/>
				<path fill="#FFFFFF" d="M1022.206,166.779l0.032,16.463c0,0.658,0.024,1.197,0.067,1.609c0.048,0.4,0.112,0.738,0.211,0.988
					c0.085,0.252,0.197,0.441,0.339,0.568c0.147,0.127,0.309,0.242,0.484,0.344c0.395,0.211,1.064,0.307,2.014,0.307v0.816
					l-9.956,0.018v-0.809c0.514-0.004,0.922-0.029,1.246-0.07c0.316-0.045,0.583-0.119,0.783-0.219
					c0.196-0.115,0.352-0.24,0.47-0.398c0.113-0.158,0.222-0.346,0.324-0.572c0.207-0.463,0.308-1.314,0.304-2.572l-0.017-7.902
					c0-1.295-0.024-2.314-0.075-3.062c-0.037-0.74-0.126-1.301-0.237-1.674c-0.113-0.379-0.273-0.607-0.487-0.705
					c-0.211-0.096-0.494-0.145-0.824-0.145c-0.416,0-0.92,0.117-1.517,0.342l-0.32-0.816l6.178-2.51H1022.206z M1020.335,156.062
					c0.303,0,0.6,0.061,0.876,0.182c0.278,0.107,0.51,0.277,0.717,0.479c0.201,0.195,0.365,0.434,0.486,0.713
					c0.116,0.277,0.177,0.572,0.177,0.887s-0.062,0.602-0.177,0.881c-0.121,0.273-0.276,0.521-0.481,0.723
					c-0.197,0.213-0.436,0.379-0.709,0.504c-0.279,0.109-0.572,0.172-0.883,0.172c-0.318,0.008-0.615-0.062-0.888-0.172
					c-0.272-0.119-0.519-0.287-0.73-0.49c-0.209-0.205-0.376-0.457-0.496-0.732c-0.11-0.275-0.173-0.564-0.173-0.881
					c-0.004-0.309,0.056-0.605,0.173-0.885c0.11-0.273,0.279-0.514,0.482-0.717c0.197-0.195,0.438-0.365,0.723-0.48
					C1019.716,156.125,1020.009,156.062,1020.335,156.062z"/>
				<path fill="#FFFFFF" d="M1047.054,166.727c1.447-0.004,2.772,0.277,3.981,0.84c1.213,0.568,2.252,1.324,3.132,2.281
					c0.872,0.955,1.555,2.064,2.042,3.326c0.482,1.271,0.73,2.602,0.73,4.002c0,1.479-0.239,2.898-0.74,4.24
					c-0.492,1.354-1.194,2.551-2.079,3.602c-0.903,1.043-1.964,1.877-3.201,2.5c-1.235,0.621-2.591,0.932-4.065,0.934
					c-1.445,0.006-2.761-0.289-3.955-0.887c-1.188-0.592-2.208-1.385-3.059-2.371c-0.84-0.99-1.512-2.125-1.978-3.408
					c-0.462-1.289-0.694-2.613-0.694-3.992c-0.012-1.385,0.231-2.74,0.7-4.062c0.483-1.33,1.146-2.52,2.021-3.562
					c0.874-1.023,1.921-1.865,3.125-2.49C1044.239,167.045,1045.584,166.729,1047.054,166.727z M1046.367,168.189
					c-0.654,0-1.282,0.137-1.894,0.41c-0.605,0.279-1.138,0.73-1.604,1.346c-0.472,0.617-0.847,1.422-1.135,2.4
					c-0.278,0.967-0.41,2.166-0.41,3.561c0.002,1.453,0.154,2.84,0.466,4.168c0.302,1.326,0.745,2.494,1.3,3.496
					c0.563,1.004,1.242,1.803,2.044,2.406c0.802,0.59,1.692,0.893,2.682,0.889c0.71,0,1.371-0.141,1.971-0.418
					c0.605-0.275,1.131-0.721,1.579-1.352c0.445-0.615,0.791-1.43,1.045-2.443c0.253-1.027,0.37-2.266,0.37-3.74
					c-0.005-1.479-0.147-2.857-0.434-4.162c-0.281-1.293-0.695-2.436-1.243-3.402c-0.546-0.982-1.214-1.756-2.023-2.318
					C1048.286,168.467,1047.38,168.182,1046.367,168.189z"/>
				<path fill="#FFFFFF" d="M1075.092,171.014c2.392-2.898,4.687-4.35,6.865-4.352c0.76-0.004,1.463,0.121,2.104,0.367
					c0.639,0.256,1.202,0.682,1.677,1.279c0.48,0.594,0.858,1.387,1.118,2.367c0.277,0.986,0.41,2.221,0.419,3.693l0.015,8.748
					c0.002,0.877,0.047,1.582,0.144,2.076c0.103,0.514,0.272,0.895,0.512,1.162c0.233,0.254,0.562,0.416,0.964,0.484
					c0.402,0.066,0.913,0.098,1.517,0.098v0.811l-10.134,0.02v-0.809h0.429c0.665-0.006,1.2-0.064,1.576-0.188
					c0.377-0.121,0.669-0.324,0.848-0.615c0.201-0.291,0.321-0.686,0.38-1.172c0.043-0.49,0.073-1.109,0.073-1.855l-0.019-8.389
					c0-1.867-0.246-3.227-0.734-4.068c-0.486-0.836-1.309-1.264-2.456-1.258c-1.775,0.004-3.534,0.975-5.294,2.926l0.023,10.805
					c0.006,1.357,0.084,2.215,0.254,2.566c0.104,0.229,0.216,0.42,0.339,0.588c0.14,0.166,0.302,0.287,0.514,0.387
					c0.22,0.098,0.509,0.166,0.854,0.209c0.348,0.043,0.812,0.068,1.378,0.064v0.809l-10.134,0.02v-0.811h0.451
					c0.531,0,0.981-0.057,1.32-0.178c0.342-0.123,0.616-0.322,0.81-0.623c0.203-0.305,0.339-0.705,0.412-1.178
					c0.073-0.488,0.109-1.104,0.109-1.848l-0.017-7.607c-0.004-2.438-0.056-3.932-0.188-4.496c-0.103-0.539-0.272-0.902-0.509-1.102
					c-0.228-0.191-0.54-0.291-0.92-0.291c-0.427,0.012-0.92,0.113-1.504,0.344l-0.339-0.807l6.169-2.521h0.965L1075.092,171.014z"/>
			</g>
			<g>
				<path fill="#FFFFFF" d="M739.299,95.464h27.257c-1.401,6.416-4.612,11.609-9.78,15.821c-5.755,4.699-12.921,7.076-21.316,7.076
					c-6.961,0-13.45-1.617-19.276-4.781c-5.811-3.166-10.428-7.568-13.71-13.085c-3.285-5.522-4.952-11.421-4.952-17.534
					c0-5.954,1.606-11.697,4.784-17.059c3.162-5.359,7.701-9.675,13.484-12.812c10.472-5.692,22.159-6.479,34.44-1.244
					c5.492,2.34,10.617,5.838,15.247,10.387l1.464,1.437l9.835-9.317l-1.629-1.54c-6.334-6.012-12.952-10.458-19.645-13.201
					c-6.72-2.745-13.977-4.133-21.581-4.133c-9.396,0-17.964,2.102-25.448,6.25c-7.502,4.159-13.483,10.013-17.795,17.39
					c-4.295,7.38-6.477,15.458-6.477,24.018c0,11.527,3.807,21.818,11.306,30.584c9.741,11.373,23.101,17.143,39.718,17.143
					c13.737,0,24.89-4.188,33.146-12.449c8.271-8.26,12.488-19.506,12.568-33.442l0.012-2.125h-41.652V95.464z"/>
				<rect x="799.043" y="37.661" fill="#FFFFFF" width="12.916" height="91.021"/>
				<polygon fill="#FFFFFF" points="922.67,128.682 976.291,128.682 976.291,115.943 935.583,115.943 935.583,86.085 
					976.291,86.085 976.291,73.348 935.583,73.348 935.583,50.395 976.641,50.395 976.641,37.661 922.67,37.661 				"/>
				<polygon fill="#FFFFFF" points="994.734,128.682 1048.358,128.682 1048.358,115.943 1007.649,115.943 1007.649,86.085 
					1048.358,86.085 1048.358,73.348 1007.649,73.348 1007.649,50.395 1048.707,50.395 1048.707,37.661 994.734,37.661 				"/>
				<path fill="#FFFFFF" d="M1111.198,85.403c4.504-2.002,8.025-5.014,10.468-8.95c2.426-3.905,3.648-8.473,3.648-13.575
					c0-6.159-1.785-11.435-5.323-15.685c-3.512-4.219-8.127-7.017-13.72-8.295c-3.618-0.838-10.177-1.237-20.063-1.237h-19.401
					v91.021h12.906V88.387h1.743l31.215,40.294h16.094l-31.307-40.43C1103.055,87.924,1107.672,86.96,1111.198,85.403z
					 M1092.56,75.763l-12.848-0.101V50.395h13.187c5.645,0,9.678,0.467,11.975,1.385c2.171,0.862,3.887,2.274,5.226,4.302
					c1.35,2.045,2.007,4.262,2.007,6.764c0,2.598-0.65,4.876-1.991,6.961c-1.321,2.062-3.121,3.523-5.502,4.455
					C1102.105,75.265,1098.042,75.763,1092.56,75.763z"/>
				<rect x="1146.855" y="37.661" fill="#FFFFFF" width="12.917" height="91.021"/>
				<path fill="#FFFFFF" d="M1325.589,82.847v12.617h27.253c-1.402,6.416-4.609,11.609-9.775,15.821
					c-5.763,4.699-12.93,7.076-21.314,7.076c-6.96,0-13.451-1.617-19.277-4.781c-5.809-3.166-10.42-7.568-13.711-13.085
					c-3.279-5.522-4.954-11.421-4.954-17.534c0-5.954,1.612-11.697,4.777-17.059c3.168-5.359,7.706-9.675,13.496-12.812
					c10.474-5.692,22.147-6.479,34.442-1.244c5.49,2.34,10.616,5.838,15.237,10.387l1.46,1.437l9.831-9.317l-1.611-1.54
					c-6.348-6.012-12.956-10.458-19.656-13.201c-6.722-2.745-13.974-4.133-21.573-4.133c-9.408,0-17.96,2.102-25.447,6.25
					c-7.505,4.159-13.489,10.013-17.787,17.39c-4.308,7.38-6.493,15.458-6.493,24.018c0,11.527,3.812,21.818,11.316,30.584
					c9.724,11.373,23.097,17.143,39.71,17.143c13.733,0,24.89-4.188,33.152-12.449c8.256-8.26,12.487-19.506,12.565-33.442
					l0.007-2.125H1325.589z"/>
				<g>
					<g>
						<polygon fill="#FFFFFF" points="538.097,50.984 516.592,51.097 548.803,83.305 516.567,115.658 538.084,115.658 
							570.387,83.154 						"/>
						<polygon fill="#FFFFFF" points="573.977,111.836 566.305,119.438 512.714,119.396 501.398,130.84 576.398,130.84 
							576.398,111.867 						"/>
						<polygon fill="#FFFFFF" points="573.977,54.504 566.305,46.904 512.714,46.948 501.398,35.5 576.398,35.5 576.398,54.468 
													"/>
					</g>
					<polygon fill="#FFFFFF" points="650.922,98.401 599.081,38.364 598.456,37.64 591.573,37.64 591.634,72.085 602.715,83.174 
						591.573,94.31 591.573,128.658 606.682,128.658 606.682,67.966 659.668,128.658 666.1,128.658 666.1,37.623 650.922,37.623 
											"/>
				</g>
				<polygon fill="#FFFFFF" points="889.401,98.429 837.564,38.391 836.923,37.666 830.047,37.666 830.047,128.688 845.16,128.688 
					845.16,67.991 898.143,128.688 904.573,128.688 904.573,37.654 889.401,37.654 				"/>
				<polygon fill="#FFFFFF" points="1237.218,98.429 1185.378,38.391 1184.743,37.666 1177.867,37.666 1177.867,128.688 
					1192.977,128.688 1192.977,67.991 1245.967,128.688 1252.393,128.688 1252.393,37.654 1237.218,37.654 				"/>
			</g>
			<g>
				<path fill="#FFFFFF" d="M78.499,104.725c-7.829,9.109-17.276,13.544-28.887,13.544c-10.433,0-19.176-3.375-25.989-10.023
					c-6.886-6.729-10.242-14.893-10.242-24.971c0-6.59,1.54-12.589,4.583-17.844c3.039-5.239,7.382-9.481,12.929-12.606
					c5.544-3.135,11.67-4.71,18.184-4.71c5.983,0,11.54,1.207,16.51,3.587c4.966,2.393,9.279,5.939,12.84,10.568l1.295,1.678
					l10.151-7.795l-1.199-1.667c-4.355-6.038-10.02-10.791-16.835-14.138c-6.796-3.34-14.49-5.029-22.876-5.029
					c-13.918,0-25.688,4.572-34.963,13.607C4.712,57.973,0,69.272,0,82.515c0,12.541,3.886,23.408,11.548,32.299
					c9.149,10.551,21.785,15.891,37.529,15.891c8.26,0,15.854-1.576,22.579-4.717c6.744-3.135,12.458-7.639,16.967-13.381
					l1.331-1.699l-10.159-7.695L78.499,104.725z"/>
				<polygon fill="#FFFFFF" points="162.743,73.894 122.797,73.894 122.797,37.501 109.881,37.501 109.881,128.521 122.797,128.521 
					122.797,86.637 162.743,86.637 162.743,128.521 175.66,128.521 175.66,37.501 162.743,37.501 				"/>
				<path fill="#FFFFFF" d="M247.525,92.01c0,8.256-0.439,11.634-0.814,13.011c-0.746,2.767-1.92,5.143-3.484,7.069
					c-1.566,1.889-3.536,3.406-5.862,4.479c-5.066,2.354-10.802,2.129-16.311-0.486c-2.9-1.381-5.065-3.082-6.412-5.064
					c-1.379-2.004-2.269-4.586-2.67-7.707c-0.152-0.982-0.327-3.743-0.327-11.301V37.501h-12.917V92.01
					c0,9.104,0.557,15.289,1.694,18.906c1.83,5.967,5.483,10.816,10.874,14.416c5.331,3.57,11.773,5.373,19.166,5.373
					c6.911,0,12.899-1.938,17.799-5.754c4.865-3.793,8.168-8.334,9.806-13.508c1.581-4.974,2.367-11.516,2.367-19.433V37.501
					h-12.909V92.01z"/>
				<polygon fill="#FFFFFF" points="294.842,37.501 281.925,37.501 281.925,128.521 328.237,128.521 328.237,115.904 
					294.842,115.904 				"/>
				<path fill="#FFFFFF" d="M412.3,128.658h13.062l-42.462-91.07h-4.226l-43.016,91.07h13.382l14.246-30.085h34.845L412.3,128.658z
					 M368.508,87.527l12.242-25.846l12.179,25.846H368.508z"/>
			</g>
		</g>
	</g>
</g>
<text transform="matrix(1 0 0 1 1445.313 102.79)"><tspan x="0" y="0" fill="#FFFFFF" font-family="'HelveticaNeue-Bold'" font-size="90.5166">COMPUTER</tspan><tspan x="0" y="80.009" fill="#FFFFFF" font-family="'HelveticaNeue-Bold'" font-size="90.5166">ENGINEERING</tspan></text>
<line fill="#FFFFFF" stroke="#FFFFFF" stroke-width="5" x1="1404.167" y1="0" x2="1404.167" y2="214"/>
</svg>
